<mxfile host="app.diagrams.net" modified="2022-09-01T01:08:54.460Z" agent="5.0 (Macintosh; Intel Mac OS X 10_15_7) AppleWebKit/537.36 (KHTML, like Gecko) Chrome/104.0.5112.102 Safari/537.36" etag="5PLgfn6ai8fzQP429BuH" version="20.2.7" type="github">
  <diagram id="Oj15jLV8fYYxJeW5JwJq" name="第 1 页">
    <mxGraphModel dx="1186" dy="717" grid="0" gridSize="10" guides="1" tooltips="1" connect="1" arrows="1" fold="1" page="0" pageScale="1" pageWidth="827" pageHeight="1169" math="0" shadow="0">
      <root>
        <mxCell id="0" />
        <mxCell id="1" parent="0" />
        <mxCell id="2h98Z0Sa_hd2sVhk9nlb-207" style="edgeStyle=orthogonalEdgeStyle;rounded=0;orthogonalLoop=1;jettySize=auto;html=1;" edge="1" parent="1" source="2h98Z0Sa_hd2sVhk9nlb-1">
          <mxGeometry relative="1" as="geometry">
            <mxPoint x="710" y="345" as="targetPoint" />
          </mxGeometry>
        </mxCell>
        <mxCell id="2h98Z0Sa_hd2sVhk9nlb-1" value="" style="shape=table;startSize=0;container=1;collapsible=0;childLayout=tableLayout;" vertex="1" parent="1">
          <mxGeometry x="30" y="160" width="530" height="370" as="geometry" />
        </mxCell>
        <mxCell id="2h98Z0Sa_hd2sVhk9nlb-2" value="" style="shape=tableRow;horizontal=0;startSize=0;swimlaneHead=0;swimlaneBody=0;top=0;left=0;bottom=0;right=0;collapsible=0;dropTarget=0;fillColor=none;points=[[0,0.5],[1,0.5]];portConstraint=eastwest;" vertex="1" parent="2h98Z0Sa_hd2sVhk9nlb-1">
          <mxGeometry width="530" height="41" as="geometry" />
        </mxCell>
        <mxCell id="2h98Z0Sa_hd2sVhk9nlb-182" value="metrics_key" style="shape=partialRectangle;html=1;whiteSpace=wrap;connectable=0;overflow=hidden;fillColor=none;top=0;left=0;bottom=0;right=0;pointerEvents=1;rowspan=1;colspan=4;" vertex="1" parent="2h98Z0Sa_hd2sVhk9nlb-2">
          <mxGeometry width="530" height="41" as="geometry">
            <mxRectangle width="118" height="41" as="alternateBounds" />
          </mxGeometry>
        </mxCell>
        <mxCell id="2h98Z0Sa_hd2sVhk9nlb-39" value="metrics_key" style="shape=partialRectangle;html=1;whiteSpace=wrap;connectable=0;overflow=hidden;fillColor=none;top=0;left=0;bottom=0;right=0;pointerEvents=1;" vertex="1" visible="0" parent="2h98Z0Sa_hd2sVhk9nlb-2">
          <mxGeometry x="118" width="117" height="41" as="geometry">
            <mxRectangle width="117" height="41" as="alternateBounds" />
          </mxGeometry>
        </mxCell>
        <mxCell id="2h98Z0Sa_hd2sVhk9nlb-36" style="shape=partialRectangle;html=1;whiteSpace=wrap;connectable=0;overflow=hidden;fillColor=none;top=0;left=0;bottom=0;right=0;pointerEvents=1;" vertex="1" visible="0" parent="2h98Z0Sa_hd2sVhk9nlb-2">
          <mxGeometry x="235" width="122" height="41" as="geometry">
            <mxRectangle width="122" height="41" as="alternateBounds" />
          </mxGeometry>
        </mxCell>
        <mxCell id="2h98Z0Sa_hd2sVhk9nlb-3" value="" style="shape=partialRectangle;html=1;whiteSpace=wrap;connectable=0;overflow=hidden;fillColor=none;top=0;left=0;bottom=0;right=0;pointerEvents=1;" vertex="1" visible="0" parent="2h98Z0Sa_hd2sVhk9nlb-2">
          <mxGeometry x="357" width="173" height="41" as="geometry">
            <mxRectangle width="173" height="41" as="alternateBounds" />
          </mxGeometry>
        </mxCell>
        <mxCell id="2h98Z0Sa_hd2sVhk9nlb-7" value="" style="shape=tableRow;horizontal=0;startSize=0;swimlaneHead=0;swimlaneBody=0;top=0;left=0;bottom=0;right=0;collapsible=0;dropTarget=0;fillColor=none;points=[[0,0.5],[1,0.5]];portConstraint=eastwest;" vertex="1" parent="2h98Z0Sa_hd2sVhk9nlb-1">
          <mxGeometry y="41" width="530" height="41" as="geometry" />
        </mxCell>
        <mxCell id="2h98Z0Sa_hd2sVhk9nlb-183" value="主键" style="shape=partialRectangle;html=1;whiteSpace=wrap;connectable=0;overflow=hidden;fillColor=none;top=0;left=0;bottom=0;right=0;pointerEvents=1;" vertex="1" parent="2h98Z0Sa_hd2sVhk9nlb-7">
          <mxGeometry width="118" height="41" as="geometry">
            <mxRectangle width="118" height="41" as="alternateBounds" />
          </mxGeometry>
        </mxCell>
        <mxCell id="2h98Z0Sa_hd2sVhk9nlb-40" value="统计日期" style="shape=partialRectangle;html=1;whiteSpace=wrap;connectable=0;overflow=hidden;fillColor=none;top=0;left=0;bottom=0;right=0;pointerEvents=1;" vertex="1" parent="2h98Z0Sa_hd2sVhk9nlb-7">
          <mxGeometry x="118" width="117" height="41" as="geometry">
            <mxRectangle width="117" height="41" as="alternateBounds" />
          </mxGeometry>
        </mxCell>
        <mxCell id="2h98Z0Sa_hd2sVhk9nlb-37" value="度量名" style="shape=partialRectangle;html=1;whiteSpace=wrap;connectable=0;overflow=hidden;fillColor=none;top=0;left=0;bottom=0;right=0;pointerEvents=1;" vertex="1" parent="2h98Z0Sa_hd2sVhk9nlb-7">
          <mxGeometry x="235" width="122" height="41" as="geometry">
            <mxRectangle width="122" height="41" as="alternateBounds" />
          </mxGeometry>
        </mxCell>
        <mxCell id="2h98Z0Sa_hd2sVhk9nlb-8" value="标签" style="shape=partialRectangle;html=1;whiteSpace=wrap;connectable=0;overflow=hidden;fillColor=none;top=0;left=0;bottom=0;right=0;pointerEvents=1;" vertex="1" parent="2h98Z0Sa_hd2sVhk9nlb-7">
          <mxGeometry x="357" width="173" height="41" as="geometry">
            <mxRectangle width="173" height="41" as="alternateBounds" />
          </mxGeometry>
        </mxCell>
        <mxCell id="2h98Z0Sa_hd2sVhk9nlb-12" value="" style="shape=tableRow;horizontal=0;startSize=0;swimlaneHead=0;swimlaneBody=0;top=0;left=0;bottom=0;right=0;collapsible=0;dropTarget=0;fillColor=none;points=[[0,0.5],[1,0.5]];portConstraint=eastwest;" vertex="1" parent="2h98Z0Sa_hd2sVhk9nlb-1">
          <mxGeometry y="82" width="530" height="42" as="geometry" />
        </mxCell>
        <mxCell id="2h98Z0Sa_hd2sVhk9nlb-184" value="1" style="shape=partialRectangle;html=1;whiteSpace=wrap;connectable=0;overflow=hidden;fillColor=none;top=0;left=0;bottom=0;right=0;pointerEvents=1;" vertex="1" parent="2h98Z0Sa_hd2sVhk9nlb-12">
          <mxGeometry width="118" height="42" as="geometry">
            <mxRectangle width="118" height="42" as="alternateBounds" />
          </mxGeometry>
        </mxCell>
        <mxCell id="2h98Z0Sa_hd2sVhk9nlb-41" value="2022-09-01" style="shape=partialRectangle;html=1;whiteSpace=wrap;connectable=0;overflow=hidden;fillColor=none;top=0;left=0;bottom=0;right=0;pointerEvents=1;" vertex="1" parent="2h98Z0Sa_hd2sVhk9nlb-12">
          <mxGeometry x="118" width="117" height="42" as="geometry">
            <mxRectangle width="117" height="42" as="alternateBounds" />
          </mxGeometry>
        </mxCell>
        <mxCell id="2h98Z0Sa_hd2sVhk9nlb-38" value="task" style="shape=partialRectangle;html=1;whiteSpace=wrap;connectable=0;overflow=hidden;fillColor=none;top=0;left=0;bottom=0;right=0;pointerEvents=1;" vertex="1" parent="2h98Z0Sa_hd2sVhk9nlb-12">
          <mxGeometry x="235" width="122" height="42" as="geometry">
            <mxRectangle width="122" height="42" as="alternateBounds" />
          </mxGeometry>
        </mxCell>
        <mxCell id="2h98Z0Sa_hd2sVhk9nlb-13" value="day:editor:001" style="shape=partialRectangle;html=1;whiteSpace=wrap;connectable=0;overflow=hidden;fillColor=none;top=0;left=0;bottom=0;right=0;pointerEvents=1;" vertex="1" parent="2h98Z0Sa_hd2sVhk9nlb-12">
          <mxGeometry x="357" width="173" height="42" as="geometry">
            <mxRectangle width="173" height="42" as="alternateBounds" />
          </mxGeometry>
        </mxCell>
        <mxCell id="2h98Z0Sa_hd2sVhk9nlb-154" style="shape=tableRow;horizontal=0;startSize=0;swimlaneHead=0;swimlaneBody=0;top=0;left=0;bottom=0;right=0;collapsible=0;dropTarget=0;fillColor=none;points=[[0,0.5],[1,0.5]];portConstraint=eastwest;" vertex="1" parent="2h98Z0Sa_hd2sVhk9nlb-1">
          <mxGeometry y="124" width="530" height="41" as="geometry" />
        </mxCell>
        <mxCell id="2h98Z0Sa_hd2sVhk9nlb-185" value="2" style="shape=partialRectangle;html=1;whiteSpace=wrap;connectable=0;overflow=hidden;fillColor=none;top=0;left=0;bottom=0;right=0;pointerEvents=1;" vertex="1" parent="2h98Z0Sa_hd2sVhk9nlb-154">
          <mxGeometry width="118" height="41" as="geometry">
            <mxRectangle width="118" height="41" as="alternateBounds" />
          </mxGeometry>
        </mxCell>
        <mxCell id="2h98Z0Sa_hd2sVhk9nlb-155" value="2022-09-01" style="shape=partialRectangle;html=1;whiteSpace=wrap;connectable=0;overflow=hidden;fillColor=none;top=0;left=0;bottom=0;right=0;pointerEvents=1;" vertex="1" parent="2h98Z0Sa_hd2sVhk9nlb-154">
          <mxGeometry x="118" width="117" height="41" as="geometry">
            <mxRectangle width="117" height="41" as="alternateBounds" />
          </mxGeometry>
        </mxCell>
        <mxCell id="2h98Z0Sa_hd2sVhk9nlb-156" value="order_pay_amount" style="shape=partialRectangle;html=1;whiteSpace=wrap;connectable=0;overflow=hidden;fillColor=none;top=0;left=0;bottom=0;right=0;pointerEvents=1;" vertex="1" parent="2h98Z0Sa_hd2sVhk9nlb-154">
          <mxGeometry x="235" width="122" height="41" as="geometry">
            <mxRectangle width="122" height="41" as="alternateBounds" />
          </mxGeometry>
        </mxCell>
        <mxCell id="2h98Z0Sa_hd2sVhk9nlb-157" value="total" style="shape=partialRectangle;html=1;whiteSpace=wrap;connectable=0;overflow=hidden;fillColor=none;top=0;left=0;bottom=0;right=0;pointerEvents=1;" vertex="1" parent="2h98Z0Sa_hd2sVhk9nlb-154">
          <mxGeometry x="357" width="173" height="41" as="geometry">
            <mxRectangle width="173" height="41" as="alternateBounds" />
          </mxGeometry>
        </mxCell>
        <mxCell id="2h98Z0Sa_hd2sVhk9nlb-174" style="shape=tableRow;horizontal=0;startSize=0;swimlaneHead=0;swimlaneBody=0;top=0;left=0;bottom=0;right=0;collapsible=0;dropTarget=0;fillColor=none;points=[[0,0.5],[1,0.5]];portConstraint=eastwest;" vertex="1" parent="2h98Z0Sa_hd2sVhk9nlb-1">
          <mxGeometry y="165" width="530" height="40" as="geometry" />
        </mxCell>
        <mxCell id="2h98Z0Sa_hd2sVhk9nlb-186" value="3" style="shape=partialRectangle;html=1;whiteSpace=wrap;connectable=0;overflow=hidden;fillColor=none;top=0;left=0;bottom=0;right=0;pointerEvents=1;" vertex="1" parent="2h98Z0Sa_hd2sVhk9nlb-174">
          <mxGeometry width="118" height="40" as="geometry">
            <mxRectangle width="118" height="40" as="alternateBounds" />
          </mxGeometry>
        </mxCell>
        <mxCell id="2h98Z0Sa_hd2sVhk9nlb-175" value="2022-09-01" style="shape=partialRectangle;html=1;whiteSpace=wrap;connectable=0;overflow=hidden;fillColor=none;top=0;left=0;bottom=0;right=0;pointerEvents=1;" vertex="1" parent="2h98Z0Sa_hd2sVhk9nlb-174">
          <mxGeometry x="118" width="117" height="40" as="geometry">
            <mxRectangle width="117" height="40" as="alternateBounds" />
          </mxGeometry>
        </mxCell>
        <mxCell id="2h98Z0Sa_hd2sVhk9nlb-176" value="order_pay_amount" style="shape=partialRectangle;html=1;whiteSpace=wrap;connectable=0;overflow=hidden;fillColor=none;top=0;left=0;bottom=0;right=0;pointerEvents=1;" vertex="1" parent="2h98Z0Sa_hd2sVhk9nlb-174">
          <mxGeometry x="235" width="122" height="40" as="geometry">
            <mxRectangle width="122" height="40" as="alternateBounds" />
          </mxGeometry>
        </mxCell>
        <mxCell id="2h98Z0Sa_hd2sVhk9nlb-177" value="month:202209" style="shape=partialRectangle;html=1;whiteSpace=wrap;connectable=0;overflow=hidden;fillColor=none;top=0;left=0;bottom=0;right=0;pointerEvents=1;" vertex="1" parent="2h98Z0Sa_hd2sVhk9nlb-174">
          <mxGeometry x="357" width="173" height="40" as="geometry">
            <mxRectangle width="173" height="40" as="alternateBounds" />
          </mxGeometry>
        </mxCell>
        <mxCell id="2h98Z0Sa_hd2sVhk9nlb-178" style="shape=tableRow;horizontal=0;startSize=0;swimlaneHead=0;swimlaneBody=0;top=0;left=0;bottom=0;right=0;collapsible=0;dropTarget=0;fillColor=none;points=[[0,0.5],[1,0.5]];portConstraint=eastwest;" vertex="1" parent="2h98Z0Sa_hd2sVhk9nlb-1">
          <mxGeometry y="205" width="530" height="41" as="geometry" />
        </mxCell>
        <mxCell id="2h98Z0Sa_hd2sVhk9nlb-187" value="4" style="shape=partialRectangle;html=1;whiteSpace=wrap;connectable=0;overflow=hidden;fillColor=none;top=0;left=0;bottom=0;right=0;pointerEvents=1;" vertex="1" parent="2h98Z0Sa_hd2sVhk9nlb-178">
          <mxGeometry width="118" height="41" as="geometry">
            <mxRectangle width="118" height="41" as="alternateBounds" />
          </mxGeometry>
        </mxCell>
        <mxCell id="2h98Z0Sa_hd2sVhk9nlb-179" value="2022-09-01" style="shape=partialRectangle;html=1;whiteSpace=wrap;connectable=0;overflow=hidden;fillColor=none;top=0;left=0;bottom=0;right=0;pointerEvents=1;" vertex="1" parent="2h98Z0Sa_hd2sVhk9nlb-178">
          <mxGeometry x="118" width="117" height="41" as="geometry">
            <mxRectangle width="117" height="41" as="alternateBounds" />
          </mxGeometry>
        </mxCell>
        <mxCell id="2h98Z0Sa_hd2sVhk9nlb-180" value="order_pay_amount" style="shape=partialRectangle;html=1;whiteSpace=wrap;connectable=0;overflow=hidden;fillColor=none;top=0;left=0;bottom=0;right=0;pointerEvents=1;" vertex="1" parent="2h98Z0Sa_hd2sVhk9nlb-178">
          <mxGeometry x="235" width="122" height="41" as="geometry">
            <mxRectangle width="122" height="41" as="alternateBounds" />
          </mxGeometry>
        </mxCell>
        <mxCell id="2h98Z0Sa_hd2sVhk9nlb-181" value="day:20220901" style="shape=partialRectangle;html=1;whiteSpace=wrap;connectable=0;overflow=hidden;fillColor=none;top=0;left=0;bottom=0;right=0;pointerEvents=1;" vertex="1" parent="2h98Z0Sa_hd2sVhk9nlb-178">
          <mxGeometry x="357" width="173" height="41" as="geometry">
            <mxRectangle width="173" height="41" as="alternateBounds" />
          </mxGeometry>
        </mxCell>
        <mxCell id="2h98Z0Sa_hd2sVhk9nlb-158" style="shape=tableRow;horizontal=0;startSize=0;swimlaneHead=0;swimlaneBody=0;top=0;left=0;bottom=0;right=0;collapsible=0;dropTarget=0;fillColor=none;points=[[0,0.5],[1,0.5]];portConstraint=eastwest;" vertex="1" parent="2h98Z0Sa_hd2sVhk9nlb-1">
          <mxGeometry y="246" width="530" height="42" as="geometry" />
        </mxCell>
        <mxCell id="2h98Z0Sa_hd2sVhk9nlb-188" value="5" style="shape=partialRectangle;html=1;whiteSpace=wrap;connectable=0;overflow=hidden;fillColor=none;top=0;left=0;bottom=0;right=0;pointerEvents=1;" vertex="1" parent="2h98Z0Sa_hd2sVhk9nlb-158">
          <mxGeometry width="118" height="42" as="geometry">
            <mxRectangle width="118" height="42" as="alternateBounds" />
          </mxGeometry>
        </mxCell>
        <mxCell id="2h98Z0Sa_hd2sVhk9nlb-159" value="2022-09-01" style="shape=partialRectangle;html=1;whiteSpace=wrap;connectable=0;overflow=hidden;fillColor=none;top=0;left=0;bottom=0;right=0;pointerEvents=1;" vertex="1" parent="2h98Z0Sa_hd2sVhk9nlb-158">
          <mxGeometry x="118" width="117" height="42" as="geometry">
            <mxRectangle width="117" height="42" as="alternateBounds" />
          </mxGeometry>
        </mxCell>
        <mxCell id="2h98Z0Sa_hd2sVhk9nlb-160" value="order_amount" style="shape=partialRectangle;html=1;whiteSpace=wrap;connectable=0;overflow=hidden;fillColor=none;top=0;left=0;bottom=0;right=0;pointerEvents=1;" vertex="1" parent="2h98Z0Sa_hd2sVhk9nlb-158">
          <mxGeometry x="235" width="122" height="42" as="geometry">
            <mxRectangle width="122" height="42" as="alternateBounds" />
          </mxGeometry>
        </mxCell>
        <mxCell id="2h98Z0Sa_hd2sVhk9nlb-161" value="total" style="shape=partialRectangle;html=1;whiteSpace=wrap;connectable=0;overflow=hidden;fillColor=none;top=0;left=0;bottom=0;right=0;pointerEvents=1;" vertex="1" parent="2h98Z0Sa_hd2sVhk9nlb-158">
          <mxGeometry x="357" width="173" height="42" as="geometry">
            <mxRectangle width="173" height="42" as="alternateBounds" />
          </mxGeometry>
        </mxCell>
        <mxCell id="2h98Z0Sa_hd2sVhk9nlb-162" style="shape=tableRow;horizontal=0;startSize=0;swimlaneHead=0;swimlaneBody=0;top=0;left=0;bottom=0;right=0;collapsible=0;dropTarget=0;fillColor=none;points=[[0,0.5],[1,0.5]];portConstraint=eastwest;" vertex="1" parent="2h98Z0Sa_hd2sVhk9nlb-1">
          <mxGeometry y="288" width="530" height="41" as="geometry" />
        </mxCell>
        <mxCell id="2h98Z0Sa_hd2sVhk9nlb-189" value="6" style="shape=partialRectangle;html=1;whiteSpace=wrap;connectable=0;overflow=hidden;fillColor=none;top=0;left=0;bottom=0;right=0;pointerEvents=1;" vertex="1" parent="2h98Z0Sa_hd2sVhk9nlb-162">
          <mxGeometry width="118" height="41" as="geometry">
            <mxRectangle width="118" height="41" as="alternateBounds" />
          </mxGeometry>
        </mxCell>
        <mxCell id="2h98Z0Sa_hd2sVhk9nlb-163" value="2022-09-01" style="shape=partialRectangle;html=1;whiteSpace=wrap;connectable=0;overflow=hidden;fillColor=none;top=0;left=0;bottom=0;right=0;pointerEvents=1;" vertex="1" parent="2h98Z0Sa_hd2sVhk9nlb-162">
          <mxGeometry x="118" width="117" height="41" as="geometry">
            <mxRectangle width="117" height="41" as="alternateBounds" />
          </mxGeometry>
        </mxCell>
        <mxCell id="2h98Z0Sa_hd2sVhk9nlb-164" value="order_amount" style="shape=partialRectangle;html=1;whiteSpace=wrap;connectable=0;overflow=hidden;fillColor=none;top=0;left=0;bottom=0;right=0;pointerEvents=1;" vertex="1" parent="2h98Z0Sa_hd2sVhk9nlb-162">
          <mxGeometry x="235" width="122" height="41" as="geometry">
            <mxRectangle width="122" height="41" as="alternateBounds" />
          </mxGeometry>
        </mxCell>
        <mxCell id="2h98Z0Sa_hd2sVhk9nlb-165" value="month:202209" style="shape=partialRectangle;html=1;whiteSpace=wrap;connectable=0;overflow=hidden;fillColor=none;top=0;left=0;bottom=0;right=0;pointerEvents=1;" vertex="1" parent="2h98Z0Sa_hd2sVhk9nlb-162">
          <mxGeometry x="357" width="173" height="41" as="geometry">
            <mxRectangle width="173" height="41" as="alternateBounds" />
          </mxGeometry>
        </mxCell>
        <mxCell id="2h98Z0Sa_hd2sVhk9nlb-166" style="shape=tableRow;horizontal=0;startSize=0;swimlaneHead=0;swimlaneBody=0;top=0;left=0;bottom=0;right=0;collapsible=0;dropTarget=0;fillColor=none;points=[[0,0.5],[1,0.5]];portConstraint=eastwest;" vertex="1" parent="2h98Z0Sa_hd2sVhk9nlb-1">
          <mxGeometry y="329" width="530" height="41" as="geometry" />
        </mxCell>
        <mxCell id="2h98Z0Sa_hd2sVhk9nlb-190" value="7" style="shape=partialRectangle;html=1;whiteSpace=wrap;connectable=0;overflow=hidden;fillColor=none;top=0;left=0;bottom=0;right=0;pointerEvents=1;" vertex="1" parent="2h98Z0Sa_hd2sVhk9nlb-166">
          <mxGeometry width="118" height="41" as="geometry">
            <mxRectangle width="118" height="41" as="alternateBounds" />
          </mxGeometry>
        </mxCell>
        <mxCell id="2h98Z0Sa_hd2sVhk9nlb-167" value="2022-09-01" style="shape=partialRectangle;html=1;whiteSpace=wrap;connectable=0;overflow=hidden;fillColor=none;top=0;left=0;bottom=0;right=0;pointerEvents=1;" vertex="1" parent="2h98Z0Sa_hd2sVhk9nlb-166">
          <mxGeometry x="118" width="117" height="41" as="geometry">
            <mxRectangle width="117" height="41" as="alternateBounds" />
          </mxGeometry>
        </mxCell>
        <mxCell id="2h98Z0Sa_hd2sVhk9nlb-168" value="order_amount" style="shape=partialRectangle;html=1;whiteSpace=wrap;connectable=0;overflow=hidden;fillColor=none;top=0;left=0;bottom=0;right=0;pointerEvents=1;" vertex="1" parent="2h98Z0Sa_hd2sVhk9nlb-166">
          <mxGeometry x="235" width="122" height="41" as="geometry">
            <mxRectangle width="122" height="41" as="alternateBounds" />
          </mxGeometry>
        </mxCell>
        <mxCell id="2h98Z0Sa_hd2sVhk9nlb-169" value="day:20220901" style="shape=partialRectangle;html=1;whiteSpace=wrap;connectable=0;overflow=hidden;fillColor=none;top=0;left=0;bottom=0;right=0;pointerEvents=1;" vertex="1" parent="2h98Z0Sa_hd2sVhk9nlb-166">
          <mxGeometry x="357" width="173" height="41" as="geometry">
            <mxRectangle width="173" height="41" as="alternateBounds" />
          </mxGeometry>
        </mxCell>
        <mxCell id="2h98Z0Sa_hd2sVhk9nlb-191" value="" style="shape=table;startSize=0;container=1;collapsible=0;childLayout=tableLayout;" vertex="1" parent="1">
          <mxGeometry x="710" y="277" width="440" height="140" as="geometry" />
        </mxCell>
        <mxCell id="2h98Z0Sa_hd2sVhk9nlb-192" value="" style="shape=tableRow;horizontal=0;startSize=0;swimlaneHead=0;swimlaneBody=0;top=0;left=0;bottom=0;right=0;collapsible=0;dropTarget=0;fillColor=none;points=[[0,0.5],[1,0.5]];portConstraint=eastwest;" vertex="1" parent="2h98Z0Sa_hd2sVhk9nlb-191">
          <mxGeometry width="440" height="46" as="geometry" />
        </mxCell>
        <mxCell id="2h98Z0Sa_hd2sVhk9nlb-193" value="metrics_value" style="shape=partialRectangle;html=1;whiteSpace=wrap;connectable=0;overflow=hidden;fillColor=none;top=0;left=0;bottom=0;right=0;pointerEvents=1;rowspan=1;colspan=4;" vertex="1" parent="2h98Z0Sa_hd2sVhk9nlb-192">
          <mxGeometry width="440" height="46" as="geometry">
            <mxRectangle width="110" height="46" as="alternateBounds" />
          </mxGeometry>
        </mxCell>
        <mxCell id="2h98Z0Sa_hd2sVhk9nlb-194" value="" style="shape=partialRectangle;html=1;whiteSpace=wrap;connectable=0;overflow=hidden;fillColor=none;top=0;left=0;bottom=0;right=0;pointerEvents=1;" vertex="1" visible="0" parent="2h98Z0Sa_hd2sVhk9nlb-192">
          <mxGeometry x="110" width="110" height="46" as="geometry">
            <mxRectangle width="110" height="46" as="alternateBounds" />
          </mxGeometry>
        </mxCell>
        <mxCell id="2h98Z0Sa_hd2sVhk9nlb-195" value="" style="shape=partialRectangle;html=1;whiteSpace=wrap;connectable=0;overflow=hidden;fillColor=none;top=0;left=0;bottom=0;right=0;pointerEvents=1;" vertex="1" visible="0" parent="2h98Z0Sa_hd2sVhk9nlb-192">
          <mxGeometry x="220" width="110" height="46" as="geometry">
            <mxRectangle width="110" height="46" as="alternateBounds" />
          </mxGeometry>
        </mxCell>
        <mxCell id="2h98Z0Sa_hd2sVhk9nlb-204" style="shape=partialRectangle;html=1;whiteSpace=wrap;connectable=0;overflow=hidden;fillColor=none;top=0;left=0;bottom=0;right=0;pointerEvents=1;" vertex="1" visible="0" parent="2h98Z0Sa_hd2sVhk9nlb-192">
          <mxGeometry x="330" width="110" height="46" as="geometry">
            <mxRectangle width="110" height="46" as="alternateBounds" />
          </mxGeometry>
        </mxCell>
        <mxCell id="2h98Z0Sa_hd2sVhk9nlb-208" value="" style="shape=tableRow;horizontal=0;startSize=0;swimlaneHead=0;swimlaneBody=0;top=0;left=0;bottom=0;right=0;collapsible=0;dropTarget=0;fillColor=none;points=[[0,0.5],[1,0.5]];portConstraint=eastwest;" vertex="1" parent="2h98Z0Sa_hd2sVhk9nlb-191">
          <mxGeometry y="46" width="440" height="48" as="geometry" />
        </mxCell>
        <mxCell id="2h98Z0Sa_hd2sVhk9nlb-209" value="id" style="shape=partialRectangle;html=1;whiteSpace=wrap;connectable=0;overflow=hidden;fillColor=none;top=0;left=0;bottom=0;right=0;pointerEvents=1;" vertex="1" parent="2h98Z0Sa_hd2sVhk9nlb-208">
          <mxGeometry width="110" height="48" as="geometry">
            <mxRectangle width="110" height="48" as="alternateBounds" />
          </mxGeometry>
        </mxCell>
        <mxCell id="2h98Z0Sa_hd2sVhk9nlb-210" value="metrics_key_id" style="shape=partialRectangle;html=1;whiteSpace=wrap;connectable=0;overflow=hidden;fillColor=none;top=0;left=0;bottom=0;right=0;pointerEvents=1;" vertex="1" parent="2h98Z0Sa_hd2sVhk9nlb-208">
          <mxGeometry x="110" width="110" height="48" as="geometry">
            <mxRectangle width="110" height="48" as="alternateBounds" />
          </mxGeometry>
        </mxCell>
        <mxCell id="2h98Z0Sa_hd2sVhk9nlb-211" value="index_name" style="shape=partialRectangle;html=1;whiteSpace=wrap;connectable=0;overflow=hidden;fillColor=none;top=0;left=0;bottom=0;right=0;pointerEvents=1;" vertex="1" parent="2h98Z0Sa_hd2sVhk9nlb-208">
          <mxGeometry x="220" width="110" height="48" as="geometry">
            <mxRectangle width="110" height="48" as="alternateBounds" />
          </mxGeometry>
        </mxCell>
        <mxCell id="2h98Z0Sa_hd2sVhk9nlb-212" value="val" style="shape=partialRectangle;html=1;whiteSpace=wrap;connectable=0;overflow=hidden;fillColor=none;top=0;left=0;bottom=0;right=0;pointerEvents=1;" vertex="1" parent="2h98Z0Sa_hd2sVhk9nlb-208">
          <mxGeometry x="330" width="110" height="48" as="geometry">
            <mxRectangle width="110" height="48" as="alternateBounds" />
          </mxGeometry>
        </mxCell>
        <mxCell id="2h98Z0Sa_hd2sVhk9nlb-200" value="" style="shape=tableRow;horizontal=0;startSize=0;swimlaneHead=0;swimlaneBody=0;top=0;left=0;bottom=0;right=0;collapsible=0;dropTarget=0;fillColor=none;points=[[0,0.5],[1,0.5]];portConstraint=eastwest;" vertex="1" parent="2h98Z0Sa_hd2sVhk9nlb-191">
          <mxGeometry y="94" width="440" height="46" as="geometry" />
        </mxCell>
        <mxCell id="2h98Z0Sa_hd2sVhk9nlb-201" value="" style="shape=partialRectangle;html=1;whiteSpace=wrap;connectable=0;overflow=hidden;fillColor=none;top=0;left=0;bottom=0;right=0;pointerEvents=1;" vertex="1" parent="2h98Z0Sa_hd2sVhk9nlb-200">
          <mxGeometry width="110" height="46" as="geometry">
            <mxRectangle width="110" height="46" as="alternateBounds" />
          </mxGeometry>
        </mxCell>
        <mxCell id="2h98Z0Sa_hd2sVhk9nlb-202" value="" style="shape=partialRectangle;html=1;whiteSpace=wrap;connectable=0;overflow=hidden;fillColor=none;top=0;left=0;bottom=0;right=0;pointerEvents=1;" vertex="1" parent="2h98Z0Sa_hd2sVhk9nlb-200">
          <mxGeometry x="110" width="110" height="46" as="geometry">
            <mxRectangle width="110" height="46" as="alternateBounds" />
          </mxGeometry>
        </mxCell>
        <mxCell id="2h98Z0Sa_hd2sVhk9nlb-203" value="" style="shape=partialRectangle;html=1;whiteSpace=wrap;connectable=0;overflow=hidden;fillColor=none;top=0;left=0;bottom=0;right=0;pointerEvents=1;" vertex="1" parent="2h98Z0Sa_hd2sVhk9nlb-200">
          <mxGeometry x="220" width="110" height="46" as="geometry">
            <mxRectangle width="110" height="46" as="alternateBounds" />
          </mxGeometry>
        </mxCell>
        <mxCell id="2h98Z0Sa_hd2sVhk9nlb-206" style="shape=partialRectangle;html=1;whiteSpace=wrap;connectable=0;overflow=hidden;fillColor=none;top=0;left=0;bottom=0;right=0;pointerEvents=1;" vertex="1" parent="2h98Z0Sa_hd2sVhk9nlb-200">
          <mxGeometry x="330" width="110" height="46" as="geometry">
            <mxRectangle width="110" height="46" as="alternateBounds" />
          </mxGeometry>
        </mxCell>
      </root>
    </mxGraphModel>
  </diagram>
</mxfile>
